<svg xmlns="http://www.w3.org/2000/svg" width="128" height="128" viewBox="0 0 128 128">
  <!-- Project boxes background (green and blue) -->
  <g opacity="0.3">
    <!-- Green boxes (left side) -->
    <rect x="8" y="20" width="28" height="28" rx="3" fill="#10b981"/>
    <rect x="8" y="52" width="28" height="28" rx="3" fill="#10b981"/>
    <rect x="8" y="84" width="28" height="16" rx="3" fill="#10b981"/>

    <!-- Blue boxes (right side) -->
    <rect x="92" y="20" width="28" height="12" rx="3" fill="#3b82f6"/>
    <rect x="92" y="36" width="28" height="12" rx="3" fill="#3b82f6"/>
    <rect x="92" y="52" width="28" height="12" rx="3" fill="#3b82f6"/>
    <rect x="92" y="68" width="28" height="12" rx="3" fill="#3b82f6"/>
    <rect x="92" y="84" width="28" height="16" rx="3" fill="#3b82f6"/>
  </g>

  <!-- GitHub Octocat (centered, larger) -->
  <g transform="translate(64, 64) scale(1.8)">
    <path fill="#24292e" d="M0-16c-8.837 0-16 7.163-16 16 0 7.069 4.585 13.067 10.942 15.182.8.148 1.094-.347 1.094-.77 0-.381-.015-1.642-.022-2.979-4.451.968-5.391-1.888-5.391-1.888-.728-1.849-1.776-2.341-1.776-2.341-1.452-.992.11-.973.11-.973 1.606.113 2.452 1.649 2.452 1.649 1.427 2.446 3.743 1.739 4.656 1.33.146-1.034.559-1.739 1.016-2.139-3.554-.404-7.29-1.777-7.29-7.907 0-1.747.624-3.174 1.649-4.295-.166-.403-.714-2.03.157-4.234 0 0 1.344-.43 4.401 1.64a15.353 15.353 0 0 1 4.005-.539c1.359.006 2.729.184 4.008.539 3.054-2.07 4.395-1.64 4.395-1.64.875 2.204.326 3.831.161 4.234 1.028 1.121 1.647 2.548 1.647 4.295 0 6.145-3.743 7.498-7.306 7.895.574.494 1.086 1.47 1.086 2.963 0 2.139-.019 3.864-.019 4.391 0 .426.288.925 1.1.768C11.421 13.065 16 7.07 16 0c0-8.837-7.163-16-16-16z"/>

    <!-- Claude AI symbol as eyes -->
    <!-- Left eye (Claude symbol) -->
    <g transform="translate(-5, -3) scale(0.15)">
      <path fill="#d97706" d="M20.034,0L9.966,0C4.457,0,0,4.457,0,9.966l0,10.068C0,25.543,4.457,30,9.966,30l10.068,0C25.543,30,30,25.543,30,20.034l0,-10.068C30,4.457,25.543,0,20.034,0Zm-7.517,21.517l-7.551,-7.551l7.551,-7.551l7.551,7.551l-7.551,7.551Z"/>
    </g>

    <!-- Right eye (Claude symbol) -->
    <g transform="translate(5, -3) scale(0.15)">
      <path fill="#d97706" d="M20.034,0L9.966,0C4.457,0,0,4.457,0,9.966l0,10.068C0,25.543,4.457,30,9.966,30l10.068,0C25.543,30,30,25.543,30,20.034l0,-10.068C30,4.457,25.543,0,20.034,0Zm-7.517,21.517l-7.551,-7.551l7.551,-7.551l7.551,7.551l-7.551,7.551Z"/>
    </g>
  </g>
</svg>
